# xmcd CD database file
#
# Track frame offsets:
#	150
#	18718
#	33269
#	52258
#	70825
#	85375
#
# Disc length: 1388 seconds
#
# Revision: 0
# Processed by: cddbd v1.5.2PL0 Copyright (c) Steve Scherf et al.
# Submitted via: CD2WAV32(JP) R3.22
#
DISCID=4f056a06
DTITLE=谷村奈南 - Again
DYEAR=2007
DGENRE=JPop
TTITLE0=Again
TTITLE1=get it on
TTITLE2=瞳の中のモラル
TTITLE3=Again -Instrumental-
TTITLE4=get it on -Instrumental-
TTITLE5=瞳の中のモラル -Instrumental-
EXTD=
EXTT0=
EXTT1=
EXTT2=
EXTT3=
EXTT4=
EXTT5=
PLAYORDER=
